<?xml version="1.0" standalone="no"?>
<svg xmlns:xlink="http://www.w3.org/1999/xlink" id="wave" style="transform:rotate(180deg); transition: 0.3s" viewBox="0 0 1440 200" version="1.1" xmlns="http://www.w3.org/2000/svg"><defs><linearGradient id="sw-gradient-0" x1="0" x2="0" y1="1" y2="0"><stop stop-color="rgba(200, 121, 44, 0.65)" offset="0%"/><stop stop-color="rgba(255, 196.452, 67.029, 0.65)" offset="100%"/></linearGradient></defs><path style="transform:translate(0, 0px); opacity:1" fill="url(#sw-gradient-0)" d="M0,20L34.3,43.3C68.6,67,137,113,206,133.3C274.3,153,343,147,411,126.7C480,107,549,73,617,60C685.7,47,754,53,823,73.3C891.4,93,960,127,1029,143.3C1097.1,160,1166,160,1234,136.7C1302.9,113,1371,67,1440,53.3C1508.6,40,1577,60,1646,73.3C1714.3,87,1783,93,1851,96.7C1920,100,1989,100,2057,113.3C2125.7,127,2194,153,2263,153.3C2331.4,153,2400,127,2469,113.3C2537.1,100,2606,100,2674,90C2742.9,80,2811,60,2880,60C2948.6,60,3017,80,3086,90C3154.3,100,3223,100,3291,110C3360,120,3429,140,3497,130C3565.7,120,3634,80,3703,53.3C3771.4,27,3840,13,3909,30C3977.1,47,4046,93,4114,123.3C4182.9,153,4251,167,4320,160C4388.6,153,4457,127,4526,120C4594.3,113,4663,127,4731,130C4800,133,4869,127,4903,123.3L4937.1,120L4937.1,200L4902.9,200C4868.6,200,4800,200,4731,200C4662.9,200,4594,200,4526,200C4457.1,200,4389,200,4320,200C4251.4,200,4183,200,4114,200C4045.7,200,3977,200,3909,200C3840,200,3771,200,3703,200C3634.3,200,3566,200,3497,200C3428.6,200,3360,200,3291,200C3222.9,200,3154,200,3086,200C3017.1,200,2949,200,2880,200C2811.4,200,2743,200,2674,200C2605.7,200,2537,200,2469,200C2400,200,2331,200,2263,200C2194.3,200,2126,200,2057,200C1988.6,200,1920,200,1851,200C1782.9,200,1714,200,1646,200C1577.1,200,1509,200,1440,200C1371.4,200,1303,200,1234,200C1165.7,200,1097,200,1029,200C960,200,891,200,823,200C754.3,200,686,200,617,200C548.6,200,480,200,411,200C342.9,200,274,200,206,200C137.1,200,69,200,34,200L0,200Z"/><defs><linearGradient id="sw-gradient-1" x1="0" x2="0" y1="1" y2="0"><stop stop-color="rgba(243, 106, 62, 0.31)" offset="0%"/><stop stop-color="rgba(255, 179, 11, 0.27)" offset="100%"/></linearGradient></defs><path style="transform:translate(0, 50px); opacity:0.9" fill="url(#sw-gradient-1)" d="M0,80L34.3,70C68.6,60,137,40,206,43.3C274.3,47,343,73,411,73.3C480,73,549,47,617,56.7C685.7,67,754,113,823,120C891.4,127,960,93,1029,83.3C1097.1,73,1166,87,1234,83.3C1302.9,80,1371,60,1440,73.3C1508.6,87,1577,133,1646,130C1714.3,127,1783,73,1851,66.7C1920,60,1989,100,2057,103.3C2125.7,107,2194,73,2263,56.7C2331.4,40,2400,40,2469,63.3C2537.1,87,2606,133,2674,150C2742.9,167,2811,153,2880,123.3C2948.6,93,3017,47,3086,26.7C3154.3,7,3223,13,3291,33.3C3360,53,3429,87,3497,86.7C3565.7,87,3634,53,3703,33.3C3771.4,13,3840,7,3909,13.3C3977.1,20,4046,40,4114,53.3C4182.9,67,4251,73,4320,93.3C4388.6,113,4457,147,4526,153.3C4594.3,160,4663,140,4731,136.7C4800,133,4869,147,4903,153.3L4937.1,160L4937.1,200L4902.9,200C4868.6,200,4800,200,4731,200C4662.9,200,4594,200,4526,200C4457.1,200,4389,200,4320,200C4251.4,200,4183,200,4114,200C4045.7,200,3977,200,3909,200C3840,200,3771,200,3703,200C3634.3,200,3566,200,3497,200C3428.6,200,3360,200,3291,200C3222.9,200,3154,200,3086,200C3017.1,200,2949,200,2880,200C2811.4,200,2743,200,2674,200C2605.7,200,2537,200,2469,200C2400,200,2331,200,2263,200C2194.3,200,2126,200,2057,200C1988.6,200,1920,200,1851,200C1782.9,200,1714,200,1646,200C1577.1,200,1509,200,1440,200C1371.4,200,1303,200,1234,200C1165.7,200,1097,200,1029,200C960,200,891,200,823,200C754.3,200,686,200,617,200C548.6,200,480,200,411,200C342.9,200,274,200,206,200C137.1,200,69,200,34,200L0,200Z"/><defs><linearGradient id="sw-gradient-2" x1="0" x2="0" y1="1" y2="0"><stop stop-color="rgba(243, 106, 62, 0.39)" offset="0%"/><stop stop-color="rgba(255, 179, 11, 0.48)" offset="100%"/></linearGradient></defs><path style="transform:translate(0, 100px); opacity:0.8" fill="url(#sw-gradient-2)" d="M0,60L34.3,70C68.6,80,137,100,206,106.7C274.3,113,343,107,411,100C480,93,549,87,617,76.7C685.7,67,754,53,823,66.7C891.4,80,960,120,1029,143.3C1097.1,167,1166,173,1234,150C1302.9,127,1371,73,1440,73.3C1508.6,73,1577,127,1646,143.3C1714.3,160,1783,140,1851,140C1920,140,1989,160,2057,150C2125.7,140,2194,100,2263,76.7C2331.4,53,2400,47,2469,63.3C2537.1,80,2606,120,2674,116.7C2742.9,113,2811,67,2880,43.3C2948.6,20,3017,20,3086,46.7C3154.3,73,3223,127,3291,123.3C3360,120,3429,60,3497,53.3C3565.7,47,3634,93,3703,93.3C3771.4,93,3840,47,3909,40C3977.1,33,4046,67,4114,80C4182.9,93,4251,87,4320,70C4388.6,53,4457,27,4526,43.3C4594.3,60,4663,120,4731,120C4800,120,4869,60,4903,30L4937.1,0L4937.1,200L4902.9,200C4868.6,200,4800,200,4731,200C4662.9,200,4594,200,4526,200C4457.1,200,4389,200,4320,200C4251.4,200,4183,200,4114,200C4045.7,200,3977,200,3909,200C3840,200,3771,200,3703,200C3634.3,200,3566,200,3497,200C3428.6,200,3360,200,3291,200C3222.9,200,3154,200,3086,200C3017.1,200,2949,200,2880,200C2811.4,200,2743,200,2674,200C2605.7,200,2537,200,2469,200C2400,200,2331,200,2263,200C2194.3,200,2126,200,2057,200C1988.6,200,1920,200,1851,200C1782.9,200,1714,200,1646,200C1577.1,200,1509,200,1440,200C1371.4,200,1303,200,1234,200C1165.7,200,1097,200,1029,200C960,200,891,200,823,200C754.3,200,686,200,617,200C548.6,200,480,200,411,200C342.9,200,274,200,206,200C137.1,200,69,200,34,200L0,200Z"/></svg>