<?xml version="1.0" standalone="no"?>
<svg xmlns:xlink="http://www.w3.org/1999/xlink" id="wave" style="transform:rotate(180deg); transition: 0.3s" viewBox="0 0 1440 470" version="1.1" xmlns="http://www.w3.org/2000/svg"><defs><linearGradient id="sw-gradient-0" x1="0" x2="0" y1="1" y2="0"><stop stop-color="rgba(255, 142.148, 105.903, 1)" offset="0%"/><stop stop-color="rgba(255, 204.972, 94.385, 1)" offset="100%"/></linearGradient></defs><path style="transform:translate(0, 0px); opacity:1" fill="url(#sw-gradient-0)" d="M0,282L60,242.8C120,204,240,125,360,101.8C480,78,600,110,720,141C840,172,960,204,1080,180.2C1200,157,1320,78,1440,62.7C1560,47,1680,94,1800,156.7C1920,219,2040,298,2160,344.7C2280,392,2400,407,2520,376C2640,345,2760,266,2880,195.8C3000,125,3120,63,3240,101.8C3360,141,3480,282,3600,305.5C3720,329,3840,235,3960,180.2C4080,125,4200,110,4320,148.8C4440,188,4560,282,4680,313.3C4800,345,4920,313,5040,305.5C5160,298,5280,313,5400,297.7C5520,282,5640,235,5760,211.5C5880,188,6000,188,6120,180.2C6240,172,6360,157,6480,195.8C6600,235,6720,329,6840,344.7C6960,360,7080,298,7200,227.2C7320,157,7440,78,7560,101.8C7680,125,7800,251,7920,282C8040,313,8160,251,8280,219.3C8400,188,8520,188,8580,188L8640,188L8640,470L8580,470C8520,470,8400,470,8280,470C8160,470,8040,470,7920,470C7800,470,7680,470,7560,470C7440,470,7320,470,7200,470C7080,470,6960,470,6840,470C6720,470,6600,470,6480,470C6360,470,6240,470,6120,470C6000,470,5880,470,5760,470C5640,470,5520,470,5400,470C5280,470,5160,470,5040,470C4920,470,4800,470,4680,470C4560,470,4440,470,4320,470C4200,470,4080,470,3960,470C3840,470,3720,470,3600,470C3480,470,3360,470,3240,470C3120,470,3000,470,2880,470C2760,470,2640,470,2520,470C2400,470,2280,470,2160,470C2040,470,1920,470,1800,470C1680,470,1560,470,1440,470C1320,470,1200,470,1080,470C960,470,840,470,720,470C600,470,480,470,360,470C240,470,120,470,60,470L0,470Z"/></svg>