<?xml version="1.0" standalone="no"?>
<svg xmlns:xlink="http://www.w3.org/1999/xlink" id="wave" style="transform:rotate(0deg); transition: 0.3s"
     viewBox="0 0 1440 470" version="1.1" xmlns="http://www.w3.org/2000/svg">
    <defs>
        <linearGradient id="sw-gradient-0" x1="0" x2="0" y1="1" y2="0">
            <stop stop-color="rgba(200, 121, 44, 0.65)" offset="0%"/>
            <stop stop-color="rgba(255, 196.452, 67.029, 0.65)" offset="100%"/>
        </linearGradient>
    </defs>
    <path style="transform:translate(0, 0px); opacity:1" fill="url(#sw-gradient-0)"
          d="M0,141L60,180.2C120,219,240,298,360,344.7C480,392,600,407,720,391.7C840,376,960,329,1080,305.5C1200,282,1320,282,1440,305.5C1560,329,1680,376,1800,344.7C1920,313,2040,204,2160,188C2280,172,2400,251,2520,242.8C2640,235,2760,141,2880,109.7C3000,78,3120,110,3240,164.5C3360,219,3480,298,3600,289.8C3720,282,3840,188,3960,133.2C4080,78,4200,63,4320,94C4440,125,4560,204,4680,211.5C4800,219,4920,157,5040,133.2C5160,110,5280,125,5400,133.2C5520,141,5640,141,5760,141C5880,141,6000,141,6120,117.5C6240,94,6360,47,6480,54.8C6600,63,6720,125,6840,133.2C6960,141,7080,94,7200,117.5C7320,141,7440,235,7560,297.7C7680,360,7800,392,7920,399.5C8040,407,8160,392,8280,376C8400,360,8520,345,8580,336.8L8640,329L8640,470L8580,470C8520,470,8400,470,8280,470C8160,470,8040,470,7920,470C7800,470,7680,470,7560,470C7440,470,7320,470,7200,470C7080,470,6960,470,6840,470C6720,470,6600,470,6480,470C6360,470,6240,470,6120,470C6000,470,5880,470,5760,470C5640,470,5520,470,5400,470C5280,470,5160,470,5040,470C4920,470,4800,470,4680,470C4560,470,4440,470,4320,470C4200,470,4080,470,3960,470C3840,470,3720,470,3600,470C3480,470,3360,470,3240,470C3120,470,3000,470,2880,470C2760,470,2640,470,2520,470C2400,470,2280,470,2160,470C2040,470,1920,470,1800,470C1680,470,1560,470,1440,470C1320,470,1200,470,1080,470C960,470,840,470,720,470C600,470,480,470,360,470C240,470,120,470,60,470L0,470Z"/>
    <defs>
        <linearGradient id="sw-gradient-1" x1="0" x2="0" y1="1" y2="0">
            <stop stop-color="rgba(243, 106, 62, 0.31)" offset="0%"/>
            <stop stop-color="rgba(255, 179, 11, 0.27)" offset="100%"/>
        </linearGradient>
    </defs>
    <path style="transform:translate(0, 50px); opacity:0.9" fill="url(#sw-gradient-1)"
          d="M0,94L60,125.3C120,157,240,219,360,274.2C480,329,600,376,720,399.5C840,423,960,423,1080,415.2C1200,407,1320,392,1440,360.3C1560,329,1680,282,1800,250.7C1920,219,2040,204,2160,188C2280,172,2400,157,2520,133.2C2640,110,2760,78,2880,70.5C3000,63,3120,78,3240,78.3C3360,78,3480,63,3600,109.7C3720,157,3840,266,3960,321.2C4080,376,4200,376,4320,336.8C4440,298,4560,219,4680,203.7C4800,188,4920,235,5040,219.3C5160,204,5280,125,5400,117.5C5520,110,5640,172,5760,219.3C5880,266,6000,298,6120,289.8C6240,282,6360,235,6480,203.7C6600,172,6720,157,6840,148.8C6960,141,7080,141,7200,180.2C7320,219,7440,298,7560,282C7680,266,7800,157,7920,94C8040,31,8160,16,8280,62.7C8400,110,8520,219,8580,274.2L8640,329L8640,470L8580,470C8520,470,8400,470,8280,470C8160,470,8040,470,7920,470C7800,470,7680,470,7560,470C7440,470,7320,470,7200,470C7080,470,6960,470,6840,470C6720,470,6600,470,6480,470C6360,470,6240,470,6120,470C6000,470,5880,470,5760,470C5640,470,5520,470,5400,470C5280,470,5160,470,5040,470C4920,470,4800,470,4680,470C4560,470,4440,470,4320,470C4200,470,4080,470,3960,470C3840,470,3720,470,3600,470C3480,470,3360,470,3240,470C3120,470,3000,470,2880,470C2760,470,2640,470,2520,470C2400,470,2280,470,2160,470C2040,470,1920,470,1800,470C1680,470,1560,470,1440,470C1320,470,1200,470,1080,470C960,470,840,470,720,470C600,470,480,470,360,470C240,470,120,470,60,470L0,470Z"/>
    <defs>
        <linearGradient id="sw-gradient-2" x1="0" x2="0" y1="1" y2="0">
            <stop stop-color="rgba(243, 106, 62, 0.39)" offset="0%"/>
            <stop stop-color="rgba(255, 179, 11, 0.48)" offset="100%"/>
        </linearGradient>
    </defs>
    <path style="transform:translate(0, 100px); opacity:0.8" fill="url(#sw-gradient-2)"
          d="M0,188L60,156.7C120,125,240,63,360,101.8C480,141,600,282,720,352.5C840,423,960,423,1080,376C1200,329,1320,235,1440,203.7C1560,172,1680,204,1800,203.7C1920,204,2040,172,2160,141C2280,110,2400,78,2520,62.7C2640,47,2760,47,2880,62.7C3000,78,3120,110,3240,164.5C3360,219,3480,298,3600,274.2C3720,251,3840,125,3960,133.2C4080,141,4200,282,4320,352.5C4440,423,4560,423,4680,376C4800,329,4920,235,5040,172.3C5160,110,5280,78,5400,109.7C5520,141,5640,235,5760,242.8C5880,251,6000,172,6120,141C6240,110,6360,125,6480,164.5C6600,204,6720,266,6840,305.5C6960,345,7080,360,7200,344.7C7320,329,7440,282,7560,258.5C7680,235,7800,235,7920,227.2C8040,219,8160,204,8280,203.7C8400,204,8520,219,8580,227.2L8640,235L8640,470L8580,470C8520,470,8400,470,8280,470C8160,470,8040,470,7920,470C7800,470,7680,470,7560,470C7440,470,7320,470,7200,470C7080,470,6960,470,6840,470C6720,470,6600,470,6480,470C6360,470,6240,470,6120,470C6000,470,5880,470,5760,470C5640,470,5520,470,5400,470C5280,470,5160,470,5040,470C4920,470,4800,470,4680,470C4560,470,4440,470,4320,470C4200,470,4080,470,3960,470C3840,470,3720,470,3600,470C3480,470,3360,470,3240,470C3120,470,3000,470,2880,470C2760,470,2640,470,2520,470C2400,470,2280,470,2160,470C2040,470,1920,470,1800,470C1680,470,1560,470,1440,470C1320,470,1200,470,1080,470C960,470,840,470,720,470C600,470,480,470,360,470C240,470,120,470,60,470L0,470Z"/>
</svg>